<?xml version="1.0" encoding="utf-8"?>
<!-- Generator: Adobe Illustrator 18.1.0, SVG Export Plug-In . SVG Version: 6.00 Build 0)  -->
<svg version="1.1" id="Layer_1" xmlns:ev="http://www.w3.org/2001/xml-events"
	 xmlns="http://www.w3.org/2000/svg" xmlns:xlink="http://www.w3.org/1999/xlink" x="0px" y="0px" viewBox="-852 389 213.2 22.1"
	 enable-background="new -852 389 213.2 22.1" xml:space="preserve">
<path fill="#004B85" d="M-798.4,403.8h-1.7v6.5l0,0c0,0.5-0.4,0.8-0.8,0.8l0,0h-4.2l0,0c0,0,0,0,0,0c-0.5,0-0.9-0.4-0.9-0.9
	c0,0,0,0,0,0V390c0,0,0,0,0,0c0-0.5,0.4-0.9,0.9-0.9c0,0,0,0,0,0l0,0h6.7c2.8,0,4.9,0.6,6.3,1.8c1.4,1.2,2.1,2.9,2.1,5.2
	c0,2.5-0.7,4.4-2.2,5.7C-793.7,403.1-795.8,403.8-798.4,403.8z M-798.6,393.9h-1.5v5.1h1.1c0.9,0,1.6-0.2,2.1-0.8
	c0.5-0.5,0.8-1.2,0.8-2.1C-796.1,394.6-796.9,393.9-798.6,393.9z M-809.3,411.1L-809.3,411.1l-4.3,0l0,0c0,0,0,0,0,0
	c-0.5,0-0.9-0.4-0.9-0.9c0,0,0,0,0,0l0,0v-20.3l0,0c0-0.5,0.4-0.8,0.9-0.8c0,0,0,0,0,0l0,0h4.2l0,0c0.5,0,0.8,0.4,0.8,0.8l0,0v20.3
	l0,0C-808.5,410.7-808.8,411-809.3,411.1z M-816.5,411.1L-816.5,411.1l-4.1,0l0,0c0,0-0.1,0-0.1,0c-0.6,0-1.1-0.3-1.4-0.8l0,0
	l-4.2-7.2h-1.5v7.1l0,0c0,0,0,0,0,0c0,0.5-0.4,0.9-0.9,0.9c0,0,0,0,0,0l0,0h-4.1l0,0c0,0-0.1,0-0.1,0c-0.5,0-0.9-0.4-0.9-0.9
	c0,0,0-0.1,0-0.1l0,0V390c0,0,0,0,0,0s0,0,0,0v0l0,0c0-0.4,0.4-0.8,0.9-0.8c0,0,0,0,0,0v0h6.3c6,0,9,2.2,9,6.5
	c0,2.5-1.2,4.5-3.7,5.9l5.5,8.2c0.1,0.1,0.2,0.3,0.2,0.6C-815.6,410.7-816,411.1-816.5,411.1z M-826.6,393.6h-1.2v5h1.1
	c2.1,0,3.1-0.9,3.1-2.8C-823.6,394.3-824.6,393.6-826.6,393.6z M-835.3,393.1c0,0.5-0.4,0.8-0.8,0.9l0,0h-4.5v16.3l0,0c0,0,0,0,0,0
	c0,0.5-0.4,0.9-0.9,0.9l0,0h-4.2l0,0c-0.5,0-0.9-0.4-0.9-0.9c0,0,0,0,0,0v0v-16.3h-4.5l0,0c0,0,0,0,0,0c-0.5,0-0.9-0.4-0.9-0.9
	c0,0,0-0.1,0-0.1v-3c0,0,0-0.1,0-0.1c0-0.5,0.4-0.9,0.8-0.9l0,0h14.9l0,0c0,0,0,0,0,0c0.5,0,0.9,0.4,0.9,0.9c0,0,0,0,0,0
	L-835.3,393.1C-835.3,393.1-835.3,393.1-835.3,393.1z"/>
<path fill="#16BCFF" d="M-742.5,390.3L-742.5,390.3C-742.5,390.3-742.5,390.4-742.5,390.3l-6.6,12.2v7.7l0,0c0,0,0,0,0,0.1
	c0,0.5-0.4,0.9-0.9,0.9l0,0h-4.3l0,0c-0.4,0-0.8-0.4-0.8-0.9v0l0,0v-7.5l-6.5-12.3l0,0c-0.1-0.1-0.1-0.3-0.1-0.4
	c0-0.5,0.4-0.9,0.9-0.9c0,0,0,0,0,0l0,0h4c0,0,0,0,0,0c0.7,0,1.3,0.4,1.5,1l3.3,7.1l3.3-7.1l0,0c0.2-0.6,0.8-1,1.5-1c0,0,0,0,0,0
	h3.9l0,0c0.5,0,0.8,0.4,0.8,0.9C-742.4,390.1-742.4,390.2-742.5,390.3L-742.5,390.3z M-763.9,411.1
	C-763.9,411.1-764,411.1-763.9,411.1l-3.7,0c0,0,0,0,0,0c-0.5,0-0.9-0.4-0.9-0.9c0,0,0,0,0,0l0,0v-8.8c0-0.5,0-1.1,0-1.7
	s0.1-2.1,0.2-4.5h-0.1l-4.1,14.6l0,0c-0.2,0.7-0.8,1.2-1.6,1.2h0h-3.1l0,0c0,0,0,0,0,0c-0.8,0-1.4-0.5-1.6-1.3l0,0l-4.1-14.6h-0.1
	c0.2,2.7,0.3,4.8,0.3,6.3v8.7l0,0c0,0.5-0.4,0.8-0.8,0.8l0,0h-3.6l0,0c-0.5,0-0.8-0.4-0.8-0.8l0,0V390l0,0c0,0,0,0,0,0
	c0-0.5,0.4-0.9,0.9-0.9v0h5.8c0,0,0,0,0,0c0.7,0,1.4,0.5,1.6,1.1l0,0l4.2,14.5h0.1l4.1-14.4l0,0c0.2-0.7,0.8-1.2,1.6-1.2
	c0,0,0,0,0.1,0l0,0h5.8l0,0c0,0,0,0,0,0c0.5,0,0.8,0.4,0.9,0.8l0,0v20.3c0,0,0,0,0,0C-763.1,410.7-763.5,411.1-763.9,411.1z"/>
<path fill="#FF7E00" d="M-639.7,411.1L-639.7,411.1L-639.7,411.1C-639.7,411.1-639.7,411.1-639.7,411.1
	C-639.7,411.1-639.7,411.1-639.7,411.1h-3.7c0,0,0,0,0,0c0,0,0,0,0,0l0,0l0,0c-0.5,0-0.8-0.4-0.8-0.9c0,0,0,0,0,0l0,0v-8.8
	c0-0.5,0-1.1,0-1.7s0.1-2.1,0.2-4.5h-0.1l-4.1,14.6l0,0c-0.2,0.7-0.8,1.2-1.6,1.2l0,0h-3.1l0,0c0,0,0,0,0,0c-0.8,0-1.4-0.5-1.6-1.2
	l0,0l-4.1-14.6h-0.1c0.2,2.7,0.3,4.8,0.3,6.3v8.7l0,0c0,0.5-0.4,0.8-0.8,0.8l0,0h-3.6l0,0c-0.5,0-0.8-0.4-0.8-0.8h0V390l0,0
	c0,0,0,0,0,0c0-0.5,0.4-0.9,0.9-0.9l0,0h5.8h0c0,0,0,0,0,0c0.7,0,1.3,0.5,1.6,1.1l0,0l4.2,14.5h0.1l4.1-14.4l0,0
	c0.2-0.7,0.8-1.2,1.6-1.2c0,0,0,0,0,0l0,0h5.8l0,0c0,0,0,0,0,0c0.5,0,0.8,0.4,0.9,0.8l0,0v20.3c0,0,0,0,0,0
	C-638.8,410.7-639.2,411.1-639.7,411.1z M-665.4,411.1C-665.4,411.1-665.4,411.1-665.4,411.1L-665.4,411.1l-4.1,0l0,0
	c-0.8,0-1.5-0.6-1.6-1.3l-0.7-2.8h-7.1l-0.8,2.8c-0.2,0.7-0.8,1.3-1.6,1.3c0,0,0,0,0,0l0,0h-4.1l0,0c-0.5,0-0.8-0.4-0.8-0.9
	c0-0.1,0-0.2,0.1-0.3l6.4-19.7l0,0c0.2-0.7,0.8-1.2,1.6-1.2c0,0,0.1,0,0.1,0l0,0h5.4c0,0,0,0,0,0c0.8,0,1.4,0.5,1.6,1.3l6.5,19.7
	c0,0,0,0,0,0l0,0l0,0c0,0.1,0,0.2,0,0.2C-664.5,410.7-664.9,411.1-665.4,411.1z M-674,398.5c-0.2-0.8-0.5-1.8-0.8-3.1
	c-0.3-1.3-0.5-2.2-0.6-2.7c-0.1,0.5-0.3,1.4-0.5,2.5c-0.3,1.2-0.9,3.5-1.8,6.9h4.7L-674,398.5z M-687,410.2c0,0.5-0.4,0.9-0.9,0.9
	l0,0h-12.7l0,0c-0.5,0-0.9-0.4-0.9-0.9c0,0,0,0,0,0l0,0V390l0,0c0-0.5,0.4-0.9,0.9-0.9h0l0,0h12.7l0,0c0.5,0,0.8,0.4,0.8,0.9
	c0,0,0,0,0,0.1v2.9c0,0,0,0,0,0.1c0,0.5-0.4,0.9-0.9,0.9l0,0h-7.7v3.5h6.3l0,0c0.5,0,0.8,0.4,0.8,0.8l0,0v3.1l0,0c0,0,0,0,0,0
	c0,0.5-0.4,0.9-0.8,0.9l0,0l0,0c0,0,0,0,0,0c0,0,0,0,0,0h-6.3v4.1h7.7l0,0c0.5,0,0.9,0.4,0.9,0.9c0,0,0,0,0,0.1L-687,410.2
	C-687,410.2-687,410.2-687,410.2z M-703.5,411.1L-703.5,411.1l-4.1,0l0,0c0,0-0.1,0-0.1,0c-0.6,0-1.1-0.3-1.4-0.8l0,0l-4.2-7.2h-1.5
	v7.1l0,0c0,0,0,0,0,0c0,0.5-0.4,0.9-0.9,0.9c0,0,0,0,0,0l0,0h-4.1l0,0c0,0-0.1,0-0.1,0c-0.5,0-0.9-0.4-0.9-0.9c0,0,0,0,0-0.1l0,0
	V390c0,0,0,0,0,0s0,0,0,0v0l0,0c0-0.4,0.4-0.8,0.8-0.8c0,0,0,0,0,0l0,0h6.3c6,0,9,2.2,9,6.5c0,2.5-1.2,4.5-3.7,5.9l5.5,8.2
	c0.1,0.1,0.2,0.3,0.2,0.5C-702.6,410.7-703,411.1-703.5,411.1z M-713.6,393.6h-1.2v5h1.1c2.1,0,3.1-0.9,3.1-2.8
	C-710.5,394.3-711.6,393.6-713.6,393.6z M-733.9,411.1h-6.3l0,0c-0.5,0-0.8-0.4-0.8-0.9c0,0,0-0.1,0-0.1V390c0,0,0-0.1,0-0.1
	c0-0.5,0.4-0.8,0.8-0.9l0,0h6.8c3.5,0,6.3,0.9,8.2,2.7c1.9,1.8,2.9,4.4,2.9,7.8c0,3.7-1,6.5-3,8.5
	C-727.4,410.1-730.2,411.1-733.9,411.1z M-729.7,395.3c-0.8-1-2-1.5-3.6-1.5h-1.7v12.3h1.3c1.8,0,3.1-0.5,4-1.6
	c0.8-1,1.3-2.6,1.3-4.8C-728.5,397.8-728.9,396.3-729.7,395.3z"/>
</svg>
